STARTFONT 2.1
FONT -FontForge-Fontdiner Swanky-Book-R-Normal--11-110-72-72-P-70-ISO10646-1
SIZE 11 72 72
FONTBOUNDINGBOX 16 16 -3 -5
COMMENT "Generated by fontforge, http://fontforge.sourceforge.net"
COMMENT "Copyright (c) 2010 by Font Diner, Inc. All rights reserved."
STARTPROPERTIES 39
FOUNDRY "FontForge"
FAMILY_NAME "Fontdiner Swanky"
WEIGHT_NAME "Book"
SLANT "R"
SETWIDTH_NAME "Normal"
ADD_STYLE_NAME ""
PIXEL_SIZE 11
POINT_SIZE 110
RESOLUTION_X 72
RESOLUTION_Y 72
SPACING "P"
AVERAGE_WIDTH 70
CHARSET_REGISTRY "ISO10646"
CHARSET_ENCODING "1"
FONTNAME_REGISTRY ""
CHARSET_COLLECTIONS "ISO10646-1"
FONT_NAME "FontdinerSwanky-Regular"
FACE_NAME "Fontdiner Swanky Regular"
COPYRIGHT "Copyright (c) 2010 by Font Diner, Inc. All rights reserved."
FONT_VERSION "1.001"
FONT_ASCENT 9
FONT_DESCENT 2
UNDERLINE_POSITION -1
UNDERLINE_THICKNESS 1
X_HEIGHT 5
CAP_HEIGHT 6
RAW_ASCENT 799
RAW_DESCENT 200
NORM_SPACE 4
RELATIVE_WEIGHT 40
RELATIVE_SETWIDTH 50
SUPERSCRIPT_X 0
SUPERSCRIPT_Y 5
SUPERSCRIPT_SIZE 6
SUBSCRIPT_X 0
SUBSCRIPT_Y 1
SUBSCRIPT_SIZE 6
AVG_LOWERCASE_WIDTH 69
AVG_UPPERCASE_WIDTH 85
ENDPROPERTIES
CHARS 231
STARTCHAR space
ENCODING 32
SWIDTH 320 0
DWIDTH 4 0
BBX 1 1 0 0
BITMAP
00
ENDCHAR
STARTCHAR exclam
ENCODING 33
SWIDTH 305 0
DWIDTH 3 0
BBX 3 9 0 0
BITMAP
60
60
60
60
60
40
40
40
C0
ENDCHAR
STARTCHAR quotedbl
ENCODING 34
SWIDTH 369 0
DWIDTH 4 0
BBX 4 3 0 4
BITMAP
F0
F0
F0
ENDCHAR
STARTCHAR numbersign
ENCODING 35
SWIDTH 702 0
DWIDTH 8 0
BBX 8 8 0 0
BITMAP
04
24
FF
24
24
FE
2C
6C
ENDCHAR
STARTCHAR dollar
ENCODING 36
SWIDTH 545 0
DWIDTH 6 0
BBX 6 9 0 -1
BITMAP
20
24
D8
C4
78
BC
CC
F8
30
ENDCHAR
STARTCHAR percent
ENCODING 37
SWIDTH 657 0
DWIDTH 7 0
BBX 7 10 0 -1
BITMAP
04
EC
AC
68
18
10
36
2A
2E
60
ENDCHAR
STARTCHAR ampersand
ENCODING 38
SWIDTH 668 0
DWIDTH 7 0
BBX 9 9 0 -1
BITMAP
7800
4800
6800
3400
5A00
DA00
CD80
7600
0800
ENDCHAR
STARTCHAR quotesingle
ENCODING 39
SWIDTH 177 0
DWIDTH 2 0
BBX 2 3 0 4
BITMAP
C0
C0
C0
ENDCHAR
STARTCHAR parenleft
ENCODING 40
SWIDTH 384 0
DWIDTH 4 0
BBX 3 11 1 -2
BITMAP
20
C0
80
80
80
80
80
C0
C0
60
20
ENDCHAR
STARTCHAR parenright
ENCODING 41
SWIDTH 375 0
DWIDTH 4 0
BBX 4 11 0 -2
BITMAP
C0
60
20
30
30
30
30
20
60
40
80
ENDCHAR
STARTCHAR asterisk
ENCODING 42
SWIDTH 640 0
DWIDTH 7 0
BBX 7 7 0 0
BITMAP
68
2C
B8
FE
38
6C
28
ENDCHAR
STARTCHAR plus
ENCODING 43
SWIDTH 607 0
DWIDTH 7 0
BBX 7 7 0 0
BITMAP
30
30
F0
FE
10
10
10
ENDCHAR
STARTCHAR comma
ENCODING 44
SWIDTH 226 0
DWIDTH 3 0
BBX 2 3 0 -2
BITMAP
C0
C0
40
ENDCHAR
STARTCHAR hyphen
ENCODING 45
SWIDTH 549 0
DWIDTH 6 0
BBX 4 2 1 3
BITMAP
F0
F0
ENDCHAR
STARTCHAR period
ENCODING 46
SWIDTH 226 0
DWIDTH 3 0
BBX 2 2 0 -1
BITMAP
C0
C0
ENDCHAR
STARTCHAR slash
ENCODING 47
SWIDTH 600 0
DWIDTH 7 0
BBX 7 11 0 -1
BITMAP
04
06
0C
1C
18
30
30
60
60
C0
80
ENDCHAR
STARTCHAR zero
ENCODING 48
SWIDTH 740 0
DWIDTH 8 0
BBX 8 7 0 0
BITMAP
3C
66
C3
C3
C3
66
3C
ENDCHAR
STARTCHAR one
ENCODING 49
SWIDTH 503 0
DWIDTH 6 0
BBX 7 8 -1 0
BITMAP
18
F8
18
18
18
18
18
7E
ENDCHAR
STARTCHAR two
ENCODING 50
SWIDTH 638 0
DWIDTH 7 0
BBX 7 9 0 0
BITMAP
80
B8
64
46
44
5E
72
44
FC
ENDCHAR
STARTCHAR three
ENCODING 51
SWIDTH 620 0
DWIDTH 7 0
BBX 7 10 0 -1
BITMAP
80
B8
EC
44
8C
3C
8E
C6
FC
80
ENDCHAR
STARTCHAR four
ENCODING 52
SWIDTH 606 0
DWIDTH 7 0
BBX 8 10 -1 -1
BITMAP
02
04
0C
0C
1D
2D
7E
8E
0D
3F
ENDCHAR
STARTCHAR five
ENCODING 53
SWIDTH 610 0
DWIDTH 7 0
BBX 6 9 0 -1
BITMAP
3C
F4
C4
F8
8C
8C
CC
FC
80
ENDCHAR
STARTCHAR six
ENCODING 54
SWIDTH 619 0
DWIDTH 7 0
BBX 7 10 0 -1
BITMAP
04
34
7C
64
FC
C6
C6
C6
6C
38
ENDCHAR
STARTCHAR seven
ENCODING 55
SWIDTH 598 0
DWIDTH 7 0
BBX 7 9 0 -1
BITMAP
FE
DE
4C
4C
0C
18
18
38
4E
ENDCHAR
STARTCHAR eight
ENCODING 56
SWIDTH 642 0
DWIDTH 7 0
BBX 7 9 0 -1
BITMAP
38
6C
46
44
7C
C6
C6
C6
7C
ENDCHAR
STARTCHAR nine
ENCODING 57
SWIDTH 610 0
DWIDTH 7 0
BBX 7 10 0 -2
BITMAP
38
CC
C4
C6
EE
7C
4C
78
40
40
ENDCHAR
STARTCHAR colon
ENCODING 58
SWIDTH 223 0
DWIDTH 2 0
BBX 2 5 0 -1
BITMAP
C0
C0
00
C0
C0
ENDCHAR
STARTCHAR semicolon
ENCODING 59
SWIDTH 228 0
DWIDTH 3 0
BBX 2 6 0 -2
BITMAP
C0
C0
00
C0
C0
C0
ENDCHAR
STARTCHAR less
ENCODING 60
SWIDTH 563 0
DWIDTH 6 0
BBX 7 7 0 0
BITMAP
04
1E
78
E0
30
18
04
ENDCHAR
STARTCHAR equal
ENCODING 61
SWIDTH 531 0
DWIDTH 6 0
BBX 6 4 0 1
BITMAP
FC
FC
FC
FC
ENDCHAR
STARTCHAR greater
ENCODING 62
SWIDTH 576 0
DWIDTH 6 0
BBX 7 7 0 0
BITMAP
C0
E0
38
0E
18
60
C0
ENDCHAR
STARTCHAR question
ENCODING 63
SWIDTH 592 0
DWIDTH 7 0
BBX 6 10 0 0
BITMAP
80
70
8C
84
04
3C
60
60
40
E0
ENDCHAR
STARTCHAR at
ENCODING 64
SWIDTH 792 0
DWIDTH 9 0
BBX 9 7 0 0
BITMAP
3E00
5D00
D580
8E80
B480
DD80
7F00
ENDCHAR
STARTCHAR A
ENCODING 65
SWIDTH 788 0
DWIDTH 9 0
BBX 13 9 -2 -2
BITMAP
1E00
0700
0700
0980
0F80
10C0
30C0
FCE0
01F8
ENDCHAR
STARTCHAR B
ENCODING 66
SWIDTH 774 0
DWIDTH 9 0
BBX 10 8 -1 -1
BITMAP
FF00
3180
30C0
3F80
3380
3180
1380
FE00
ENDCHAR
STARTCHAR C
ENCODING 67
SWIDTH 766 0
DWIDTH 8 0
BBX 8 9 0 -1
BITMAP
09
7F
61
C1
C0
C1
61
3F
1D
ENDCHAR
STARTCHAR D
ENCODING 68
SWIDTH 833 0
DWIDTH 9 0
BBX 10 7 -1 0
BITMAP
FF80
18C0
18C0
18C0
18C0
18C0
7F80
ENDCHAR
STARTCHAR E
ENCODING 69
SWIDTH 781 0
DWIDTH 9 0
BBX 9 8 -1 0
BITMAP
DF80
3880
1A80
1A80
1E80
1A80
1A80
FF80
ENDCHAR
STARTCHAR F
ENCODING 70
SWIDTH 731 0
DWIDTH 8 0
BBX 9 9 -1 -1
BITMAP
CF80
3880
1A80
1A80
1E80
1A00
1200
1000
FE00
ENDCHAR
STARTCHAR G
ENCODING 71
SWIDTH 828 0
DWIDTH 9 0
BBX 10 8 0 0
BITMAP
0D00
7F00
6100
C100
CFC0
E300
6300
3F00
ENDCHAR
STARTCHAR H
ENCODING 72
SWIDTH 797 0
DWIDTH 9 0
BBX 11 9 -1 -1
BITMAP
07E0
F980
3180
3180
3F80
3980
3180
33E0
FC00
ENDCHAR
STARTCHAR I
ENCODING 73
SWIDTH 445 0
DWIDTH 5 0
BBX 7 9 -1 -1
BITMAP
FE
18
18
18
18
10
10
10
FE
ENDCHAR
STARTCHAR J
ENCODING 74
SWIDTH 718 0
DWIDTH 8 0
BBX 10 9 -1 -1
BITMAP
03C0
3F00
0300
0300
0300
0300
FB00
2300
3E00
ENDCHAR
STARTCHAR K
ENCODING 75
SWIDTH 934 0
DWIDTH 10 0
BBX 13 9 -1 -1
BITMAP
FF30
18C0
1B00
1E00
1B00
1980
10C0
7CC0
03F8
ENDCHAR
STARTCHAR L
ENCODING 76
SWIDTH 712 0
DWIDTH 8 0
BBX 9 9 -1 0
BITMAP
FE00
1800
1800
1800
1880
1880
1880
1980
FF80
ENDCHAR
STARTCHAR M
ENCODING 77
SWIDTH 1033 0
DWIDTH 11 0
BBX 13 8 -1 0
BITMAP
F878
18E0
1CE0
1D60
1760
1660
1260
FFF8
ENDCHAR
STARTCHAR N
ENCODING 78
SWIDTH 840 0
DWIDTH 9 0
BBX 11 9 -1 -1
BITMAP
FFE0
1C80
1C80
1680
1780
1380
1180
FE80
0080
ENDCHAR
STARTCHAR O
ENCODING 79
SWIDTH 808 0
DWIDTH 9 0
BBX 9 7 0 0
BITMAP
1C00
7300
E300
C180
C180
6300
3E00
ENDCHAR
STARTCHAR P
ENCODING 80
SWIDTH 746 0
DWIDTH 8 0
BBX 9 7 -1 0
BITMAP
FF00
1180
1080
1F00
1800
1800
FE00
ENDCHAR
STARTCHAR Q
ENCODING 81
SWIDTH 789 0
DWIDTH 9 0
BBX 10 10 0 -3
BITMAP
3E00
6300
C300
C300
6300
6700
1C00
0400
07C0
1C00
ENDCHAR
STARTCHAR R
ENCODING 82
SWIDTH 826 0
DWIDTH 9 0
BBX 13 10 -1 -3
BITMAP
FF00
1080
1080
1F00
1B00
1980
3D80
C2F8
00C0
0300
ENDCHAR
STARTCHAR S
ENCODING 83
SWIDTH 661 0
DWIDTH 7 0
BBX 7 9 0 -1
BITMAP
02
7E
C2
F2
7C
8E
46
7C
80
ENDCHAR
STARTCHAR T
ENCODING 84
SWIDTH 754 0
DWIDTH 8 0
BBX 8 7 0 0
BITMAP
FF
59
99
19
18
18
7E
ENDCHAR
STARTCHAR U
ENCODING 85
SWIDTH 725 0
DWIDTH 8 0
BBX 10 7 -1 0
BITMAP
FFC0
3100
3100
3100
3100
3100
1E00
ENDCHAR
STARTCHAR V
ENCODING 86
SWIDTH 786 0
DWIDTH 9 0
BBX 12 9 -2 -1
BITMAP
0700
F8F0
1840
0C80
0C80
0700
0700
0200
0200
ENDCHAR
STARTCHAR W
ENCODING 87
SWIDTH 1026 0
DWIDTH 11 0
BBX 15 8 -2 -1
BITMAP
FF7E
1990
1990
0FD0
0FE0
0660
0660
0440
ENDCHAR
STARTCHAR X
ENCODING 88
SWIDTH 860 0
DWIDTH 9 0
BBX 11 8 -1 -1
BITMAP
FE20
19C0
0F00
0E00
0F00
1300
F9C0
0620
ENDCHAR
STARTCHAR Y
ENCODING 89
SWIDTH 848 0
DWIDTH 9 0
BBX 11 8 -1 -1
BITMAP
FF20
18C0
0D00
0E00
0600
0600
0600
1FC0
ENDCHAR
STARTCHAR Z
ENCODING 90
SWIDTH 685 0
DWIDTH 8 0
BBX 8 7 0 0
BITMAP
FF
C6
4C
59
39
72
FE
ENDCHAR
STARTCHAR bracketleft
ENCODING 91
SWIDTH 380 0
DWIDTH 4 0
BBX 4 10 1 -1
BITMAP
F0
80
80
80
80
80
80
80
80
F0
ENDCHAR
STARTCHAR backslash
ENCODING 92
SWIDTH 680 0
DWIDTH 7 0
BBX 7 11 0 -1
BITMAP
40
C0
60
70
30
18
18
0C
06
06
02
ENDCHAR
STARTCHAR bracketright
ENCODING 93
SWIDTH 371 0
DWIDTH 4 0
BBX 5 10 -1 -1
BITMAP
F8
18
18
18
18
10
10
10
10
70
ENDCHAR
STARTCHAR asciicircum
ENCODING 94
SWIDTH 671 0
DWIDTH 7 0
BBX 7 7 0 3
BITMAP
10
10
38
3C
64
E2
C0
ENDCHAR
STARTCHAR underscore
ENCODING 95
SWIDTH 840 0
DWIDTH 9 0
BBX 9 2 0 -1
BITMAP
FF80
FF80
ENDCHAR
STARTCHAR grave
ENCODING 96
SWIDTH 707 0
DWIDTH 8 0
BBX 2 3 3 6
BITMAP
C0
40
40
ENDCHAR
STARTCHAR a
ENCODING 97
SWIDTH 572 0
DWIDTH 6 0
BBX 7 6 0 0
BITMAP
78
4C
4C
FC
CC
7E
ENDCHAR
STARTCHAR b
ENCODING 98
SWIDTH 723 0
DWIDTH 8 0
BBX 10 10 -2 -2
BITMAP
F800
1800
1800
1800
1800
1F80
18C0
18C0
1F80
3000
ENDCHAR
STARTCHAR c
ENCODING 99
SWIDTH 589 0
DWIDTH 6 0
BBX 6 6 0 -1
BITMAP
7C
4C
C0
C4
7C
38
ENDCHAR
STARTCHAR d
ENCODING 100
SWIDTH 713 0
DWIDTH 8 0
BBX 9 11 0 -2
BITMAP
1C00
0300
0300
0200
0200
7E00
4600
C600
6600
3E00
0780
ENDCHAR
STARTCHAR e
ENCODING 101
SWIDTH 593 0
DWIDTH 7 0
BBX 6 6 0 -1
BITMAP
38
4C
FC
C0
64
38
ENDCHAR
STARTCHAR f
ENCODING 102
SWIDTH 507 0
DWIDTH 6 0
BBX 7 15 -1 -4
BITMAP
0C
1A
12
10
10
7C
10
18
18
18
18
18
08
D8
70
ENDCHAR
STARTCHAR g
ENCODING 103
SWIDTH 606 0
DWIDTH 7 0
BBX 7 12 0 -5
BITMAP
06
1E
6C
C4
C4
4C
78
78
7C
C6
C6
7C
ENDCHAR
STARTCHAR h
ENCODING 104
SWIDTH 678 0
DWIDTH 7 0
BBX 10 10 -2 -1
BITMAP
F800
1800
1800
1800
1800
1F80
1980
1980
3D80
03C0
ENDCHAR
STARTCHAR i
ENCODING 105
SWIDTH 393 0
DWIDTH 4 0
BBX 5 9 0 0
BITMAP
20
70
20
F0
30
20
20
20
F8
ENDCHAR
STARTCHAR j
ENCODING 106
SWIDTH 385 0
DWIDTH 4 0
BBX 5 12 -1 -4
BITMAP
30
30
00
70
10
18
18
18
18
D8
D8
70
ENDCHAR
STARTCHAR k
ENCODING 107
SWIDTH 749 0
DWIDTH 8 0
BBX 11 10 -1 -1
BITMAP
F000
3000
37C0
3200
3400
3E00
3200
1300
7980
8760
ENDCHAR
STARTCHAR l
ENCODING 108
SWIDTH 369 0
DWIDTH 4 0
BBX 6 10 -1 -1
BITMAP
F0
30
30
30
30
30
30
10
10
7C
ENDCHAR
STARTCHAR m
ENCODING 109
SWIDTH 990 0
DWIDTH 11 0
BBX 13 5 -1 1
BITMAP
FEE0
33E0
3320
1320
7FF8
ENDCHAR
STARTCHAR n
ENCODING 110
SWIDTH 643 0
DWIDTH 7 0
BBX 9 5 -1 1
BITMAP
FE00
3300
3300
1300
7F80
ENDCHAR
STARTCHAR o
ENCODING 111
SWIDTH 705 0
DWIDTH 8 0
BBX 8 5 0 0
BITMAP
7E
C2
C3
C2
7C
ENDCHAR
STARTCHAR p
ENCODING 112
SWIDTH 723 0
DWIDTH 8 0
BBX 9 9 -1 -3
BITMAP
F000
3F00
3180
3180
3100
3E00
1000
1000
FC00
ENDCHAR
STARTCHAR q
ENCODING 113
SWIDTH 682 0
DWIDTH 8 0
BBX 9 8 0 -2
BITMAP
1780
6E00
C600
C600
6E00
1400
0400
1F80
ENDCHAR
STARTCHAR r
ENCODING 114
SWIDTH 595 0
DWIDTH 7 0
BBX 8 7 -1 0
BITMAP
08
FF
1B
10
10
10
7E
ENDCHAR
STARTCHAR s
ENCODING 115
SWIDTH 533 0
DWIDTH 6 0
BBX 6 7 0 0
BITMAP
04
78
C4
74
BC
CC
F8
ENDCHAR
STARTCHAR t
ENCODING 116
SWIDTH 422 0
DWIDTH 5 0
BBX 5 10 0 0
BITMAP
20
20
60
F8
60
60
60
48
48
70
ENDCHAR
STARTCHAR u
ENCODING 117
SWIDTH 614 0
DWIDTH 7 0
BBX 9 6 -1 -1
BITMAP
FF00
2200
2200
2200
3F80
0400
ENDCHAR
STARTCHAR v
ENCODING 118
SWIDTH 639 0
DWIDTH 7 0
BBX 9 7 -1 -1
BITMAP
F800
3780
3200
1C00
1C00
0800
0800
ENDCHAR
STARTCHAR w
ENCODING 119
SWIDTH 805 0
DWIDTH 9 0
BBX 12 6 -1 0
BITMAP
FDF0
3480
3680
1B00
1B00
0A00
ENDCHAR
STARTCHAR x
ENCODING 120
SWIDTH 717 0
DWIDTH 8 0
BBX 10 7 -1 -1
BITMAP
FCC0
1B00
1C00
0C00
1600
FBC0
0C00
ENDCHAR
STARTCHAR y
ENCODING 121
SWIDTH 655 0
DWIDTH 7 0
BBX 8 11 -1 -5
BITMAP
C8
37
33
63
33
1F
03
03
62
26
3C
ENDCHAR
STARTCHAR z
ENCODING 122
SWIDTH 549 0
DWIDTH 6 0
BBX 6 6 0 0
BITMAP
FC
8C
98
B4
64
FC
ENDCHAR
STARTCHAR braceleft
ENCODING 123
SWIDTH 708 0
DWIDTH 8 0
BBX 6 10 1 -1
BITMAP
3C
20
20
20
20
E0
20
20
20
3C
ENDCHAR
STARTCHAR bar
ENCODING 124
SWIDTH 304 0
DWIDTH 3 0
BBX 2 10 1 -1
BITMAP
C0
C0
C0
C0
C0
C0
80
80
80
80
ENDCHAR
STARTCHAR braceright
ENCODING 125
SWIDTH 517 0
DWIDTH 6 0
BBX 6 10 0 -1
BITMAP
F0
30
30
30
30
3C
30
10
10
F0
ENDCHAR
STARTCHAR asciitilde
ENCODING 126
SWIDTH 466 0
DWIDTH 5 0
BBX 5 3 0 2
BITMAP
08
F8
90
ENDCHAR
STARTCHAR uni00A0
ENCODING 160
SWIDTH 320 0
DWIDTH 4 0
BBX 1 1 0 0
BITMAP
00
ENDCHAR
STARTCHAR exclamdown
ENCODING 161
SWIDTH 305 0
DWIDTH 3 0
BBX 3 9 0 -3
BITMAP
60
20
60
60
60
60
60
C0
C0
ENDCHAR
STARTCHAR cent
ENCODING 162
SWIDTH 417 0
DWIDTH 5 0
BBX 5 9 0 -1
BITMAP
20
20
50
98
80
88
70
20
20
ENDCHAR
STARTCHAR sterling
ENCODING 163
SWIDTH 658 0
DWIDTH 7 0
BBX 7 8 0 0
BITMAP
02
3E
66
FA
E2
FA
22
7E
ENDCHAR
STARTCHAR currency
ENCODING 164
SWIDTH 358 0
DWIDTH 4 0
BBX 4 4 0 2
BITMAP
90
60
60
90
ENDCHAR
STARTCHAR yen
ENCODING 165
SWIDTH 796 0
DWIDTH 9 0
BBX 10 7 -1 0
BITMAP
FFC0
3100
1A00
0C00
1E00
1E00
3F80
ENDCHAR
STARTCHAR brokenbar
ENCODING 166
SWIDTH 304 0
DWIDTH 3 0
BBX 2 10 1 -1
BITMAP
C0
C0
C0
C0
00
40
80
80
80
80
ENDCHAR
STARTCHAR section
ENCODING 167
SWIDTH 646 0
DWIDTH 7 0
BBX 7 13 0 -3
BITMAP
32
4C
C4
62
7C
5C
C6
74
7C
9E
46
7C
80
ENDCHAR
STARTCHAR dieresis
ENCODING 168
SWIDTH 708 0
DWIDTH 8 0
BBX 4 1 2 9
BITMAP
F0
ENDCHAR
STARTCHAR copyright
ENCODING 169
SWIDTH 700 0
DWIDTH 8 0
BBX 8 7 0 0
BITMAP
7E
DA
A9
A5
DA
66
18
ENDCHAR
STARTCHAR ordfeminine
ENCODING 170
SWIDTH 399 0
DWIDTH 4 0
BBX 5 5 0 4
BITMAP
60
90
F0
B0
78
ENDCHAR
STARTCHAR guillemotleft
ENCODING 171
SWIDTH 424 0
DWIDTH 5 0
BBX 5 6 0 0
BITMAP
28
50
50
F0
50
48
ENDCHAR
STARTCHAR logicalnot
ENCODING 172
SWIDTH 541 0
DWIDTH 6 0
BBX 7 5 0 1
BITMAP
84
FC
FC
84
0E
ENDCHAR
STARTCHAR sfthyphen
ENCODING 173
SWIDTH 530 0
DWIDTH 6 0
BBX 6 2 0 3
BITMAP
FC
FC
ENDCHAR
STARTCHAR registered
ENCODING 174
SWIDTH 700 0
DWIDTH 8 0
BBX 8 7 0 0
BITMAP
7C
F2
9F
91
9A
66
18
ENDCHAR
STARTCHAR macron
ENCODING 175
SWIDTH 705 0
DWIDTH 8 0
BBX 3 1 3 8
BITMAP
E0
ENDCHAR
STARTCHAR degree
ENCODING 176
SWIDTH 364 0
DWIDTH 4 0
BBX 2 3 1 5
BITMAP
C0
C0
C0
ENDCHAR
STARTCHAR plusminus
ENCODING 177
SWIDTH 607 0
DWIDTH 7 0
BBX 6 7 0 0
BITMAP
30
B0
FC
10
10
FC
FC
ENDCHAR
STARTCHAR twosuperior
ENCODING 178
SWIDTH 440 0
DWIDTH 5 0
BBX 5 6 0 4
BITMAP
A0
58
98
B8
C8
F0
ENDCHAR
STARTCHAR threesuperior
ENCODING 179
SWIDTH 442 0
DWIDTH 5 0
BBX 5 7 0 3
BITMAP
80
F0
98
30
98
F0
80
ENDCHAR
STARTCHAR acute
ENCODING 180
SWIDTH 694 0
DWIDTH 8 0
BBX 2 3 3 8
BITMAP
40
40
80
ENDCHAR
STARTCHAR mu
ENCODING 181
SWIDTH 1000 0
DWIDTH 11 0
BBX 9 8 0 -3
BITMAP
EF00
2200
2200
2200
3F80
2400
2000
2000
ENDCHAR
STARTCHAR paragraph
ENCODING 182
SWIDTH 782 0
DWIDTH 9 0
BBX 9 7 0 0
BITMAP
7F80
9E00
DE00
3E00
1E00
1600
7F80
ENDCHAR
STARTCHAR periodcentered
ENCODING 183
SWIDTH 226 0
DWIDTH 3 0
BBX 2 2 0 3
BITMAP
C0
C0
ENDCHAR
STARTCHAR cedilla
ENCODING 184
SWIDTH 780 0
DWIDTH 9 0
BBX 3 3 3 -2
BITMAP
C0
20
C0
ENDCHAR
STARTCHAR onesuperior
ENCODING 185
SWIDTH 390 0
DWIDTH 4 0
BBX 4 6 0 4
BITMAP
10
E0
20
20
20
F0
ENDCHAR
STARTCHAR ordmasculine
ENCODING 186
SWIDTH 449 0
DWIDTH 5 0
BBX 5 3 0 5
BITMAP
F8
88
F8
ENDCHAR
STARTCHAR guillemotright
ENCODING 187
SWIDTH 415 0
DWIDTH 5 0
BBX 5 6 0 0
BITMAP
A0
A0
50
58
50
A0
ENDCHAR
STARTCHAR onequarter
ENCODING 188
SWIDTH 918 0
DWIDTH 10 0
BBX 10 12 0 -2
BITMAP
1080
E180
2100
2300
2680
7480
8D80
0BC0
1FC0
11C0
27C0
2000
ENDCHAR
STARTCHAR onehalf
ENCODING 189
SWIDTH 1007 0
DWIDTH 11 0
BBX 11 12 0 -2
BITMAP
1080
E180
2100
2300
2600
7400
8DC0
0920
1960
11A0
23E0
2020
ENDCHAR
STARTCHAR threequarters
ENCODING 190
SWIDTH 936 0
DWIDTH 10 0
BBX 10 12 0 -2
BITMAP
8080
F180
9900
3300
9A40
F680
8580
09C0
1FC0
10C0
23C0
2000
ENDCHAR
STARTCHAR questiondown
ENCODING 191
SWIDTH 568 0
DWIDTH 6 0
BBX 6 10 0 -4
BITMAP
0C
04
08
18
E8
C0
C4
E4
3C
04
ENDCHAR
STARTCHAR Agrave
ENCODING 192
SWIDTH 788 0
DWIDTH 9 0
BBX 13 13 -2 -2
BITMAP
0400
0600
0200
1000
0E00
0700
0700
0980
0F80
10C0
30C0
FCE0
01F8
ENDCHAR
STARTCHAR Aacute
ENCODING 193
SWIDTH 788 0
DWIDTH 9 0
BBX 13 13 -2 -2
BITMAP
0300
0200
0200
1000
0E00
0700
0700
0980
0F80
10C0
30C0
FCE0
01F8
ENDCHAR
STARTCHAR Acircumflex
ENCODING 194
SWIDTH 788 0
DWIDTH 9 0
BBX 13 12 -2 -2
BITMAP
0200
0700
1800
0E00
0700
0700
0980
0F80
10C0
30C0
FCE0
01F8
ENDCHAR
STARTCHAR Atilde
ENCODING 195
SWIDTH 788 0
DWIDTH 9 0
BBX 13 12 -2 -2
BITMAP
0500
0700
1000
0E00
0700
0700
0980
0F80
10C0
30C0
FCE0
01F8
ENDCHAR
STARTCHAR Adieresis
ENCODING 196
SWIDTH 788 0
DWIDTH 9 0
BBX 13 11 -2 -2
BITMAP
0500
1000
0E00
0700
0700
0980
0F80
10C0
30C0
FCE0
01F8
ENDCHAR
STARTCHAR Aring
ENCODING 197
SWIDTH 788 0
DWIDTH 9 0
BBX 13 11 -2 -2
BITMAP
0700
1600
0E00
0700
0700
0980
0F80
10C0
30C0
FCE0
01F8
ENDCHAR
STARTCHAR AE
ENCODING 198
SWIDTH 1019 0
DWIDTH 11 0
BBX 14 9 -3 -1
BITMAP
0FFC
07C4
02D4
04D4
04F4
0FD4
10D4
33F8
FC04
ENDCHAR
STARTCHAR Ccedilla
ENCODING 199
SWIDTH 766 0
DWIDTH 8 0
BBX 8 12 0 -4
BITMAP
09
7F
61
C1
C0
C1
61
3F
1D
18
14
18
ENDCHAR
STARTCHAR Egrave
ENCODING 200
SWIDTH 781 0
DWIDTH 9 0
BBX 9 11 -1 0
BITMAP
0C00
0400
0400
DF80
3880
1A80
1A80
1E80
1A80
1A80
FF80
ENDCHAR
STARTCHAR Eacute
ENCODING 201
SWIDTH 781 0
DWIDTH 9 0
BBX 9 11 -1 0
BITMAP
0400
0600
0400
DF80
3880
1A80
1A80
1E80
1A80
1A80
FF80
ENDCHAR
STARTCHAR Ecircumflex
ENCODING 202
SWIDTH 781 0
DWIDTH 9 0
BBX 9 11 -1 0
BITMAP
0C00
0E00
1000
DF80
3880
1A80
1A80
1E80
1A80
1A80
FF80
ENDCHAR
STARTCHAR Edieresis
ENCODING 203
SWIDTH 781 0
DWIDTH 9 0
BBX 9 9 -1 0
BITMAP
0A00
DF80
3880
1A80
1A80
1E80
1A80
1A80
FF80
ENDCHAR
STARTCHAR Igrave
ENCODING 204
SWIDTH 445 0
DWIDTH 5 0
BBX 7 12 -1 -1
BITMAP
30
10
10
FE
18
18
18
18
10
10
10
FE
ENDCHAR
STARTCHAR Iacute
ENCODING 205
SWIDTH 445 0
DWIDTH 5 0
BBX 7 12 -1 -1
BITMAP
10
18
10
FE
18
18
18
18
10
10
10
FE
ENDCHAR
STARTCHAR Icircumflex
ENCODING 206
SWIDTH 445 0
DWIDTH 5 0
BBX 7 12 -1 -1
BITMAP
10
38
04
FE
18
18
18
18
10
10
10
FE
ENDCHAR
STARTCHAR Idieresis
ENCODING 207
SWIDTH 445 0
DWIDTH 5 0
BBX 7 10 -1 -1
BITMAP
28
FE
18
18
18
18
10
10
10
FE
ENDCHAR
STARTCHAR Eth
ENCODING 208
SWIDTH 1000 0
DWIDTH 11 0
BBX 11 7 0 0
BITMAP
FF80
18C0
1840
7E60
1840
18C0
7F80
ENDCHAR
STARTCHAR Ntilde
ENCODING 209
SWIDTH 840 0
DWIDTH 9 0
BBX 11 12 -1 -1
BITMAP
0900
0E00
0000
FFE0
1C80
1C80
1680
1780
1380
1180
FE80
0080
ENDCHAR
STARTCHAR Ograve
ENCODING 210
SWIDTH 808 0
DWIDTH 9 0
BBX 9 10 0 0
BITMAP
1800
0C00
0800
1C00
7300
E300
C180
C180
6300
3E00
ENDCHAR
STARTCHAR Oacute
ENCODING 211
SWIDTH 808 0
DWIDTH 9 0
BBX 9 10 0 0
BITMAP
0800
0C00
0800
1C00
7300
E300
C180
C180
6300
3E00
ENDCHAR
STARTCHAR Ocircumflex
ENCODING 212
SWIDTH 808 0
DWIDTH 9 0
BBX 9 10 0 0
BITMAP
0800
1C00
0000
1C00
7300
E300
C180
C180
6300
3E00
ENDCHAR
STARTCHAR Otilde
ENCODING 213
SWIDTH 808 0
DWIDTH 9 0
BBX 9 10 0 0
BITMAP
1200
1C00
0000
1C00
7300
E300
C180
C180
6300
3E00
ENDCHAR
STARTCHAR Odieresis
ENCODING 214
SWIDTH 808 0
DWIDTH 9 0
BBX 9 9 0 0
BITMAP
1400
0000
1C00
7300
E300
C180
C180
6300
3E00
ENDCHAR
STARTCHAR multiply
ENCODING 215
SWIDTH 556 0
DWIDTH 6 0
BBX 6 6 0 1
BITMAP
48
EC
78
30
78
CC
ENDCHAR
STARTCHAR Oslash
ENCODING 216
SWIDTH 808 0
DWIDTH 9 0
BBX 9 9 0 -1
BITMAP
0200
1F00
7700
EF00
C980
D980
7300
3E00
6000
ENDCHAR
STARTCHAR Ugrave
ENCODING 217
SWIDTH 725 0
DWIDTH 8 0
BBX 10 10 -1 0
BITMAP
0C00
0C00
0440
FB80
3100
3100
3100
3100
3100
1E00
ENDCHAR
STARTCHAR Uacute
ENCODING 218
SWIDTH 725 0
DWIDTH 8 0
BBX 10 11 -1 0
BITMAP
0400
0400
0C00
0440
FB80
3100
3100
3100
3100
3100
1E00
ENDCHAR
STARTCHAR Ucircumflex
ENCODING 219
SWIDTH 725 0
DWIDTH 8 0
BBX 10 10 -1 0
BITMAP
0C00
0E00
1440
FB80
3100
3100
3100
3100
3100
1E00
ENDCHAR
STARTCHAR Udieresis
ENCODING 220
SWIDTH 725 0
DWIDTH 8 0
BBX 10 9 -1 0
BITMAP
0A00
0440
FB80
3100
3100
3100
3100
3100
1E00
ENDCHAR
STARTCHAR Yacute
ENCODING 221
SWIDTH 848 0
DWIDTH 9 0
BBX 11 12 -1 -1
BITMAP
0200
0300
0200
0400
FB20
18C0
0D00
0E00
0600
0600
0600
1FC0
ENDCHAR
STARTCHAR Thorn
ENCODING 222
SWIDTH 745 0
DWIDTH 8 0
BBX 9 7 -1 0
BITMAP
FE00
1C00
1380
1080
1F00
1800
FE00
ENDCHAR
STARTCHAR germandbls
ENCODING 223
SWIDTH 986 0
DWIDTH 11 0
BBX 12 14 -1 -4
BITMAP
0F00
1980
1080
1080
7180
1300
1B00
1B80
19E0
1A70
1B30
5AE0
D800
7000
ENDCHAR
STARTCHAR agrave
ENCODING 224
SWIDTH 572 0
DWIDTH 6 0
BBX 7 9 0 0
BITMAP
18
18
08
78
4C
4C
FC
CC
7E
ENDCHAR
STARTCHAR aacute
ENCODING 225
SWIDTH 572 0
DWIDTH 6 0
BBX 7 10 0 0
BITMAP
10
18
10
00
78
4C
4C
FC
CC
7E
ENDCHAR
STARTCHAR acircumflex
ENCODING 226
SWIDTH 572 0
DWIDTH 6 0
BBX 7 9 0 0
BITMAP
10
38
04
78
4C
4C
FC
CC
7E
ENDCHAR
STARTCHAR atilde
ENCODING 227
SWIDTH 572 0
DWIDTH 6 0
BBX 7 9 0 0
BITMAP
34
38
00
78
4C
4C
FC
CC
7E
ENDCHAR
STARTCHAR adieresis
ENCODING 228
SWIDTH 572 0
DWIDTH 6 0
BBX 7 8 0 0
BITMAP
28
00
78
4C
4C
FC
CC
7E
ENDCHAR
STARTCHAR aring
ENCODING 229
SWIDTH 572 0
DWIDTH 6 0
BBX 7 8 0 0
BITMAP
38
18
78
4C
4C
FC
CC
7E
ENDCHAR
STARTCHAR ae
ENCODING 230
SWIDTH 1022 0
DWIDTH 11 0
BBX 11 6 0 0
BITMAP
7980
CA60
4E60
FF80
CB60
7F80
ENDCHAR
STARTCHAR ccedilla
ENCODING 231
SWIDTH 589 0
DWIDTH 6 0
BBX 6 9 0 -4
BITMAP
7C
4C
C0
C4
7C
38
30
28
30
ENDCHAR
STARTCHAR egrave
ENCODING 232
SWIDTH 593 0
DWIDTH 7 0
BBX 6 9 0 -1
BITMAP
10
18
08
38
4C
FC
C0
64
38
ENDCHAR
STARTCHAR eacute
ENCODING 233
SWIDTH 593 0
DWIDTH 7 0
BBX 6 10 0 -1
BITMAP
10
18
10
00
38
4C
FC
C0
64
38
ENDCHAR
STARTCHAR ecircumflex
ENCODING 234
SWIDTH 593 0
DWIDTH 7 0
BBX 6 9 0 -1
BITMAP
10
38
04
38
4C
FC
C0
64
38
ENDCHAR
STARTCHAR edieresis
ENCODING 235
SWIDTH 593 0
DWIDTH 7 0
BBX 6 8 0 -1
BITMAP
28
00
38
4C
FC
C0
64
38
ENDCHAR
STARTCHAR igrave
ENCODING 236
SWIDTH 393 0
DWIDTH 4 0
BBX 5 9 0 0
BITMAP
60
20
20
F0
30
20
20
20
F8
ENDCHAR
STARTCHAR iacute
ENCODING 237
SWIDTH 393 0
DWIDTH 4 0
BBX 5 10 0 0
BITMAP
20
30
20
00
F0
30
20
20
20
F8
ENDCHAR
STARTCHAR icircumflex
ENCODING 238
SWIDTH 393 0
DWIDTH 4 0
BBX 5 9 0 0
BITMAP
20
70
00
F0
30
20
20
20
F8
ENDCHAR
STARTCHAR idieresis
ENCODING 239
SWIDTH 393 0
DWIDTH 4 0
BBX 5 8 0 0
BITMAP
50
00
F0
30
20
20
20
F8
ENDCHAR
STARTCHAR eth
ENCODING 240
SWIDTH 672 0
DWIDTH 7 0
BBX 7 10 0 -1
BITMAP
62
1C
18
24
06
7E
C6
C2
C6
7C
ENDCHAR
STARTCHAR ntilde
ENCODING 241
SWIDTH 643 0
DWIDTH 7 0
BBX 9 8 -1 1
BITMAP
0A00
1E00
0000
FE00
3300
3300
1300
7F80
ENDCHAR
STARTCHAR ograve
ENCODING 242
SWIDTH 705 0
DWIDTH 8 0
BBX 8 9 0 0
BITMAP
18
08
08
00
7E
C2
C3
C2
7C
ENDCHAR
STARTCHAR oacute
ENCODING 243
SWIDTH 705 0
DWIDTH 8 0
BBX 8 9 0 0
BITMAP
08
08
10
00
7E
C2
C3
C2
7C
ENDCHAR
STARTCHAR ocircumflex
ENCODING 244
SWIDTH 705 0
DWIDTH 8 0
BBX 8 8 0 0
BITMAP
18
1C
20
7E
C2
C3
C2
7C
ENDCHAR
STARTCHAR otilde
ENCODING 245
SWIDTH 705 0
DWIDTH 8 0
BBX 8 8 0 0
BITMAP
14
3C
00
7E
C2
C3
C2
7C
ENDCHAR
STARTCHAR odieresis
ENCODING 246
SWIDTH 705 0
DWIDTH 8 0
BBX 8 7 0 0
BITMAP
3C
00
7E
C2
C3
C2
7C
ENDCHAR
STARTCHAR divide
ENCODING 247
SWIDTH 504 0
DWIDTH 6 0
BBX 5 6 0 0
BITMAP
30
20
F8
F8
30
30
ENDCHAR
STARTCHAR oslash
ENCODING 248
SWIDTH 705 0
DWIDTH 8 0
BBX 8 8 0 -1
BITMAP
04
06
7E
CA
DB
D2
7C
60
ENDCHAR
STARTCHAR ugrave
ENCODING 249
SWIDTH 614 0
DWIDTH 7 0
BBX 9 10 -1 -1
BITMAP
1800
0800
0800
9800
6700
2200
2200
2200
3F80
0400
ENDCHAR
STARTCHAR uacute
ENCODING 250
SWIDTH 614 0
DWIDTH 7 0
BBX 9 10 -1 -1
BITMAP
0800
0C00
0800
9800
6700
2200
2200
2200
3F80
0400
ENDCHAR
STARTCHAR ucircumflex
ENCODING 251
SWIDTH 614 0
DWIDTH 7 0
BBX 9 10 -1 -1
BITMAP
0800
1C00
0000
9800
6700
2200
2200
2200
3F80
0400
ENDCHAR
STARTCHAR udieresis
ENCODING 252
SWIDTH 614 0
DWIDTH 7 0
BBX 9 8 -1 -1
BITMAP
1400
9800
6700
2200
2200
2200
3F80
0400
ENDCHAR
STARTCHAR yacute
ENCODING 253
SWIDTH 655 0
DWIDTH 7 0
BBX 8 14 -1 -5
BITMAP
08
0C
08
C8
37
33
63
33
1F
03
03
62
26
3C
ENDCHAR
STARTCHAR thorn
ENCODING 254
SWIDTH 734 0
DWIDTH 8 0
BBX 9 13 -1 -5
BITMAP
F000
3000
1000
1000
1600
1980
1080
1180
1F80
1000
1000
1800
E600
ENDCHAR
STARTCHAR ydieresis
ENCODING 255
SWIDTH 655 0
DWIDTH 7 0
BBX 8 13 -1 -5
BITMAP
14
00
C8
37
33
63
33
1F
03
03
62
26
3C
ENDCHAR
STARTCHAR dotlessi
ENCODING 305
SWIDTH 393 0
DWIDTH 4 0
BBX 5 6 0 0
BITMAP
F0
30
20
20
20
F8
ENDCHAR
STARTCHAR Lslash
ENCODING 321
SWIDTH 713 0
DWIDTH 8 0
BBX 9 9 -1 0
BITMAP
FE00
1800
1800
1C00
3A80
7880
1880
1980
FF80
ENDCHAR
STARTCHAR lslash
ENCODING 322
SWIDTH 365 0
DWIDTH 4 0
BBX 6 10 -1 -1
BITMAP
F0
30
30
3C
F0
70
30
30
30
78
ENDCHAR
STARTCHAR OE
ENCODING 338
SWIDTH 1195 0
DWIDTH 13 0
BBX 13 8 0 0
BITMAP
0DF8
0388
7FA8
C7A8
C7C8
C748
6D28
1FF0
ENDCHAR
STARTCHAR oe
ENCODING 339
SWIDTH 1087 0
DWIDTH 12 0
BBX 12 6 0 -1
BITMAP
7DC0
C720
C630
C7D0
7F20
01C0
ENDCHAR
STARTCHAR Scaron
ENCODING 352
SWIDTH 661 0
DWIDTH 7 0
BBX 7 12 0 -1
BITMAP
2C
18
00
02
7E
C2
F2
7C
8E
46
7C
80
ENDCHAR
STARTCHAR scaron
ENCODING 353
SWIDTH 533 0
DWIDTH 6 0
BBX 6 10 0 0
BITMAP
78
30
00
04
78
C4
74
BC
CC
F8
ENDCHAR
STARTCHAR Ydieresis
ENCODING 376
SWIDTH 848 0
DWIDTH 9 0
BBX 11 10 -1 -1
BITMAP
0F00
0400
FB20
18C0
0D00
0E00
0600
0600
0600
1FC0
ENDCHAR
STARTCHAR Zcaron
ENCODING 381
SWIDTH 685 0
DWIDTH 8 0
BBX 8 10 0 0
BITMAP
3C
18
00
FF
C6
4C
59
39
72
FE
ENDCHAR
STARTCHAR zcaron
ENCODING 382
SWIDTH 549 0
DWIDTH 6 0
BBX 6 9 0 0
BITMAP
68
30
00
FC
8C
98
B4
64
FC
ENDCHAR
STARTCHAR circumflex
ENCODING 710
SWIDTH 714 0
DWIDTH 8 0
BBX 4 2 2 8
BITMAP
20
F0
ENDCHAR
STARTCHAR caron
ENCODING 711
SWIDTH 714 0
DWIDTH 8 0
BBX 4 2 2 8
BITMAP
D0
60
ENDCHAR
STARTCHAR breve
ENCODING 728
SWIDTH 715 0
DWIDTH 8 0
BBX 3 2 3 8
BITMAP
A0
C0
ENDCHAR
STARTCHAR dotaccent
ENCODING 729
SWIDTH 708 0
DWIDTH 8 0
BBX 2 1 3 9
BITMAP
C0
ENDCHAR
STARTCHAR ring
ENCODING 730
SWIDTH 704 0
DWIDTH 8 0
BBX 2 2 3 8
BITMAP
C0
C0
ENDCHAR
STARTCHAR ogonek
ENCODING 731
SWIDTH 988 0
DWIDTH 11 0
BBX 4 2 3 -1
BITMAP
C0
70
ENDCHAR
STARTCHAR tilde
ENCODING 732
SWIDTH 707 0
DWIDTH 8 0
BBX 3 2 3 8
BITMAP
A0
E0
ENDCHAR
STARTCHAR hungarumlaut
ENCODING 733
SWIDTH 671 0
DWIDTH 7 0
BBX 4 3 2 8
BITMAP
60
F0
A0
ENDCHAR
STARTCHAR endash
ENCODING 8211
SWIDTH 576 0
DWIDTH 6 0
BBX 5 2 1 3
BITMAP
F8
F8
ENDCHAR
STARTCHAR emdash
ENCODING 8212
SWIDTH 993 0
DWIDTH 11 0
BBX 9 2 1 3
BITMAP
FF80
FF80
ENDCHAR
STARTCHAR quoteleft
ENCODING 8216
SWIDTH 261 0
DWIDTH 3 0
BBX 3 3 0 5
BITMAP
60
40
C0
ENDCHAR
STARTCHAR quoteright
ENCODING 8217
SWIDTH 301 0
DWIDTH 3 0
BBX 3 3 0 5
BITMAP
40
60
C0
ENDCHAR
STARTCHAR quotesinglbase
ENCODING 8218
SWIDTH 332 0
DWIDTH 4 0
BBX 3 3 0 -1
BITMAP
60
40
C0
ENDCHAR
STARTCHAR quotedblleft
ENCODING 8220
SWIDTH 477 0
DWIDTH 5 0
BBX 5 3 0 5
BITMAP
68
58
F0
ENDCHAR
STARTCHAR quotedblright
ENCODING 8221
SWIDTH 477 0
DWIDTH 5 0
BBX 5 3 0 5
BITMAP
70
58
F0
ENDCHAR
STARTCHAR quotedblbase
ENCODING 8222
SWIDTH 477 0
DWIDTH 5 0
BBX 5 3 0 -1
BITMAP
78
D0
70
ENDCHAR
STARTCHAR dagger
ENCODING 8224
SWIDTH 487 0
DWIDTH 5 0
BBX 5 12 0 -3
BITMAP
30
30
F0
F8
30
30
30
30
30
20
20
20
ENDCHAR
STARTCHAR daggerdbl
ENCODING 8225
SWIDTH 497 0
DWIDTH 5 0
BBX 5 12 0 -3
BITMAP
30
30
F0
F8
30
F8
F8
30
30
20
20
20
ENDCHAR
STARTCHAR bullet
ENCODING 8226
SWIDTH 275 0
DWIDTH 3 0
BBX 3 3 0 3
BITMAP
40
E0
E0
ENDCHAR
STARTCHAR ellipsis
ENCODING 8230
SWIDTH 787 0
DWIDTH 9 0
BBX 9 2 0 -1
BITMAP
DB00
DB80
ENDCHAR
STARTCHAR perthousand
ENCODING 8240
SWIDTH 888 0
DWIDTH 10 0
BBX 10 10 0 -1
BITMAP
0800
EC00
AC00
E800
1800
1000
37C0
2B40
6FC0
2000
ENDCHAR
STARTCHAR guilsinglleft
ENCODING 8249
SWIDTH 234 0
DWIDTH 3 0
BBX 2 6 0 0
BITMAP
40
40
40
C0
40
40
ENDCHAR
STARTCHAR guilsinglright
ENCODING 8250
SWIDTH 223 0
DWIDTH 2 0
BBX 2 6 0 0
BITMAP
80
80
40
40
40
80
ENDCHAR
STARTCHAR fraction
ENCODING 8260
SWIDTH 600 0
DWIDTH 7 0
BBX 7 10 0 -1
BITMAP
04
0E
0C
18
18
30
60
60
C0
C0
ENDCHAR
STARTCHAR Euro
ENCODING 8364
SWIDTH 590 0
DWIDTH 7 0
BBX 7 7 0 0
BITMAP
3C
64
F0
40
FA
3C
10
ENDCHAR
STARTCHAR trademark
ENCODING 8482
SWIDTH 624 0
DWIDTH 7 0
BBX 7 5 0 3
BITMAP
40
C0
BE
BA
44
ENDCHAR
STARTCHAR minus
ENCODING 8722
SWIDTH 549 0
DWIDTH 6 0
BBX 6 2 0 3
BITMAP
FC
FC
ENDCHAR
STARTCHAR fi
ENCODING 64257
SWIDTH 757 0
DWIDTH 8 0
BBX 10 15 -1 -4
BITMAP
0400
1B00
1100
1380
1000
7F80
1180
1900
1900
1900
1FC0
1800
0800
D800
7000
ENDCHAR
STARTCHAR fl
ENCODING 64258
SWIDTH 776 0
DWIDTH 9 0
BBX 10 15 -1 -4
BITMAP
0400
1B00
1100
1180
1180
7D80
1180
1980
1980
1900
1900
1FC0
0800
D800
7000
ENDCHAR
STARTCHAR .notdef
ENCODING -1
SWIDTH 320 0
DWIDTH 4 0
BBX 1 1 0 0
BITMAP
00
ENDCHAR
ENDFONT
